<?xml version="1.0" encoding="UTF-8" standalone="no"?>
<!-- This is a Stata 17.0 generated SVG file (http://www.stata.com) -->

<svg version="1.1" width="6.000in" height="4.000in" viewBox="0 0 4320 2880" xmlns="http://www.w3.org/2000/svg" xmlns:xlink="http://www.w3.org/1999/xlink">
	<desc>Stata Graph - Graph</desc>
	<rect x="0" y="0" width="4320" height="2880" style="fill:#FFFFFF;stroke:none"/>
	<rect x="0.00" y="0.00" width="4320.00" height="2880.00" style="fill:#FFFFFF"/>
	<rect x="2.88" y="2.88" width="4314.24" height="2874.24" style="fill:none;stroke:#FFFFFF;stroke-width:5.76"/>
	<rect x="130.82" y="100.85" width="4088.34" height="2648.34" style="fill:#FFFFFF"/>
	<rect x="133.69" y="103.73" width="4082.58" height="2642.58" style="fill:none;stroke:#FFFFFF;stroke-opacity:0.00;stroke-width:5.76"/>
	<path d="
M590.36 2519.41 L590.36 2519.41 L656.37 2519.54 L722.39 2519.68 L788.40 2520.08 L854.42 2521.03 L920.43 2522.78 L986.45 2526.02 L1052.46 2531.42 L1118.47 2539.66 L1184.63 2551.13 L1250.64 2565.99 L1316.66 2583.54 L1382.67 2602.71 L1448.69 2621.74 L1514.70 2639.29 L1580.72 2654.14 L1646.73 2665.62 L1712.75 2673.85 L1778.76 2679.25 L1844.78 2682.49 L1910.79 2684.25 L1976.94 2685.19 L2042.96 2685.60 L2108.97 2685.73 L2174.99 2685.87 L2174.99 2665.21 L2108.97 2665.21 L2042.96 2664.94 L1976.94 2664.54 L1910.79 2663.59 L1844.78 2661.84 L1778.76 2658.60 L1712.75 2653.20 L1646.73 2645.10 L1580.72 2633.49 L1514.70 2618.64 L1448.69 2601.09 L1382.67 2582.05 L1316.66 2562.88 L1250.64 2545.33 L1184.63 2530.61 L1118.47 2519.00 L1052.46 2510.90 L986.45 2505.50 L920.43 2502.26 L854.42 2500.37 L788.40 2499.56 L722.39 2499.16 L656.37 2498.89 L590.36 2498.89 L590.36 2519.41 Z" stroke-linejoin="round" style="fill:#486C8C;fill-opacity:0.70;stroke:#1A476F;stroke-opacity:0.70;stroke-width:0.00"/>
	<path d="
M590.36 2498.75 L590.36 2498.75 L656.37 2498.89 L722.39 2498.89 L788.40 2499.02 L854.42 2499.43 L920.43 2500.10 L986.45 2501.18 L1052.46 2503.21 L1118.47 2506.04 L1184.63 2510.23 L1250.64 2515.63 L1316.66 2521.97 L1382.67 2528.86 L1448.69 2535.74 L1514.70 2542.09 L1580.72 2547.35 L1646.73 2551.54 L1712.75 2554.51 L1778.76 2556.40 L1844.78 2557.61 L1910.79 2558.29 L1976.94 2558.56 L2042.96 2558.69 L2108.97 2558.83 L2174.99 2558.83 L2174.99 2164.62 L2108.97 2164.62 L2042.96 2164.49 L1976.94 2164.35 L1910.79 2164.08 L1844.78 2163.41 L1778.76 2162.19 L1712.75 2160.30 L1646.73 2157.33 L1580.72 2153.15 L1514.70 2147.88 L1448.69 2141.54 L1382.67 2134.65 L1316.66 2127.77 L1250.64 2121.42 L1184.63 2116.02 L1118.47 2111.84 L1052.46 2109.00 L986.45 2106.98 L920.43 2105.90 L854.42 2105.22 L788.40 2104.82 L722.39 2104.68 L656.37 2104.68 L590.36 2104.55 L590.36 2498.75 Z" stroke-linejoin="round" style="fill:#486C8C;fill-opacity:0.70;stroke:#1A476F;stroke-opacity:0.70;stroke-width:0.00"/>
	<path d="
M2174.99 2685.73 L2174.99 2685.73 L2241.00 2685.60 L2307.02 2685.19 L2373.03 2684.25 L2439.05 2682.09 L2505.06 2677.90 L2571.07 2670.34 L2637.09 2657.79 L2703.24 2638.62 L2769.26 2611.62 L2835.27 2577.06 L2901.29 2536.01 L2967.30 2491.46 L3033.32 2446.78 L3099.33 2405.74 L3165.35 2371.18 L3231.36 2344.31 L3297.38 2325.14 L3363.39 2312.59 L3429.54 2305.03 L3495.56 2300.71 L3561.57 2298.68 L3627.59 2297.60 L3693.60 2297.20 L3759.62 2297.06 L3759.62 2276.41 L3693.60 2276.68 L3627.59 2277.08 L3561.57 2278.03 L3495.56 2280.19 L3429.54 2284.37 L3363.39 2291.93 L3297.38 2304.49 L3231.36 2323.66 L3165.35 2350.52 L3099.33 2385.22 L3033.32 2426.26 L2967.30 2470.81 L2901.29 2515.49 L2835.27 2556.40 L2769.26 2591.10 L2703.24 2617.96 L2637.09 2637.13 L2571.07 2649.69 L2505.06 2657.25 L2439.05 2661.43 L2373.03 2663.59 L2307.02 2664.54 L2241.00 2665.08 L2174.99 2665.21 L2174.99 2685.73 Z" stroke-linejoin="round" style="fill:#A65D62;fill-opacity:0.70;stroke:#90353B;stroke-opacity:0.70;stroke-width:0.00"/>
	<path d="
M2174.99 1737.21 L2174.99 1737.21 L2241.00 1737.48 L2307.02 1738.15 L2373.03 1739.50 L2439.05 1742.47 L2505.06 1748.28 L2571.07 1758.81 L2637.09 1776.22 L2703.24 1802.82 L2769.26 1840.08 L2835.27 1888.00 L2901.29 1944.84 L2967.30 2006.81 L3033.32 2068.64 L3099.33 2125.47 L3165.35 2173.53 L3231.36 2210.79 L3297.38 2237.39 L3363.39 2254.81 L3429.54 2265.20 L3495.56 2271.01 L3561.57 2273.98 L3627.59 2275.46 L3693.60 2276.00 L3759.62 2276.27 L3759.62 2270.06 L3693.60 2269.79 L3627.59 2269.12 L3561.57 2267.77 L3495.56 2264.80 L3429.54 2258.99 L3363.39 2248.46 L3297.38 2231.04 L3231.36 2204.45 L3165.35 2167.19 L3099.33 2119.26 L3033.32 2062.43 L2967.30 2000.46 L2901.29 1938.63 L2835.27 1881.79 L2769.26 1833.73 L2703.24 1796.47 L2637.09 1769.88 L2571.07 1752.46 L2505.06 1742.07 L2439.05 1736.26 L2373.03 1733.29 L2307.02 1731.81 L2241.00 1731.27 L2174.99 1731.00 L2174.99 1737.21 Z" stroke-linejoin="round" style="fill:#A65D62;fill-opacity:0.70;stroke:#90353B;stroke-opacity:0.70;stroke-width:0.00"/>
	<path d="
M2174.99 793.14 L2174.99 793.14 L2241.00 793.68 L2307.02 795.30 L2373.03 799.08 L2439.05 807.18 L2505.06 823.11 L2571.07 851.86 L2637.09 899.65 L2703.24 972.56 L2769.26 1074.62 L2835.27 1206.11 L2901.29 1361.90 L2967.30 1531.46 L3033.32 1700.89 L3099.33 1856.68 L3165.35 1988.31 L3231.36 2090.37 L3297.38 2163.14 L3363.39 2210.93 L3429.54 2239.68 L3495.56 2255.62 L3561.57 2263.72 L3627.59 2267.50 L3693.60 2269.12 L3759.62 2269.79 L3759.62 2269.25 L3693.60 2268.58 L3627.59 2266.96 L3561.57 2263.18 L3495.56 2255.08 L3429.54 2239.14 L3363.39 2210.39 L3297.38 2162.60 L3231.36 2089.83 L3165.35 1987.77 L3099.33 1856.14 L3033.32 1700.35 L2967.30 1530.92 L2901.29 1361.36 L2835.27 1205.57 L2769.26 1074.08 L2703.24 972.02 L2637.09 899.11 L2571.07 851.32 L2505.06 822.57 L2439.05 806.64 L2373.03 798.54 L2307.02 794.76 L2241.00 793.14 L2174.99 792.60 L2174.99 793.14 Z" stroke-linejoin="round" style="fill:#A65D62;fill-opacity:0.70;stroke:#90353B;stroke-opacity:0.70;stroke-width:0.00"/>
	<path d="
M590.36 2104.55 L590.36 2104.55 L656.37 2104.55 L722.39 2104.55 L788.40 2104.41 L854.42 2104.28 L920.43 2104.01 L986.45 2103.47 L1052.46 2102.52 L1118.47 2101.17 L1184.63 2099.28 L1250.64 2096.72 L1316.66 2093.75 L1382.67 2090.64 L1448.69 2087.40 L1514.70 2084.43 L1580.72 2082.00 L1646.73 2079.98 L1712.75 2078.63 L1778.76 2077.68 L1844.78 2077.14 L1910.79 2076.87 L1976.94 2076.74 L2042.96 2076.60 L2108.97 2076.60 L2174.99 2076.60 L2174.99 2019.09 L2108.97 2019.23 L2042.96 2019.23 L1976.94 2019.23 L1910.79 2019.36 L1844.78 2019.77 L1778.76 2020.31 L1712.75 2021.12 L1646.73 2022.60 L1580.72 2024.49 L1514.70 2026.92 L1448.69 2029.89 L1382.67 2033.13 L1316.66 2036.37 L1250.64 2039.34 L1184.63 2041.77 L1118.47 2043.80 L1052.46 2045.15 L986.45 2045.96 L920.43 2046.50 L854.42 2046.90 L788.40 2047.04 L722.39 2047.04 L656.37 2047.17 L590.36 2047.17 L590.36 2104.55 Z" stroke-linejoin="round" style="fill:#486C8C;fill-opacity:0.70;stroke:#1A476F;stroke-opacity:0.70;stroke-width:0.00"/>
	<path d="
M590.36 1648.65 L590.36 1648.65 L656.37 1648.65 L722.39 1648.78 L788.40 1649.05 L854.42 1649.46 L920.43 1650.40 L986.45 1652.16 L1052.46 1654.99 L1118.47 1659.45 L1184.63 1665.52 L1250.64 1673.35 L1316.66 1682.67 L1382.67 1692.93 L1448.69 1703.05 L1514.70 1712.37 L1580.72 1720.20 L1646.73 1726.41 L1712.75 1730.73 L1778.76 1733.56 L1844.78 1735.32 L1910.79 1736.26 L1976.94 1736.80 L2042.96 1736.94 L2108.97 1737.07 L2174.99 1737.07 L2174.99 1730.86 L2108.97 1730.86 L2042.96 1730.73 L1976.94 1730.46 L1910.79 1730.05 L1844.78 1729.11 L1778.76 1727.35 L1712.75 1724.52 L1646.73 1720.20 L1580.72 1713.99 L1514.70 1706.16 L1448.69 1696.84 L1382.67 1686.58 L1316.66 1676.46 L1250.64 1667.14 L1184.63 1659.31 L1118.47 1653.10 L1052.46 1648.78 L986.45 1645.95 L920.43 1644.19 L854.42 1643.25 L788.40 1642.71 L722.39 1642.57 L656.37 1642.44 L590.36 1642.44 L590.36 1648.65 Z" stroke-linejoin="round" style="fill:#486C8C;fill-opacity:0.50;stroke:#1A476F;stroke-opacity:0.50;stroke-width:0.00"/>
	<path d="
M2174.99 2558.69 L2174.99 2558.69 L2241.00 2558.29 L2307.02 2557.61 L2373.03 2555.72 L2439.05 2551.81 L2505.06 2543.98 L2571.07 2529.94 L2637.09 2506.72 L2703.24 2471.21 L2769.26 2421.53 L2835.27 2357.41 L2901.29 2281.54 L2967.30 2198.91 L3033.32 2116.43 L3099.33 2040.56 L3165.35 1976.43 L3231.36 1926.62 L3297.38 1891.11 L3363.39 1867.89 L3429.54 1853.85 L3495.56 1846.15 L3561.57 1842.24 L3627.59 1840.35 L3693.60 1839.54 L3759.62 1839.27 L3759.62 1445.06 L3693.60 1445.33 L3627.59 1446.14 L3561.57 1448.03 L3495.56 1451.95 L3429.54 1459.64 L3363.39 1473.68 L3297.38 1496.90 L3231.36 1532.41 L3165.35 1582.22 L3099.33 1646.35 L3033.32 1722.22 L2967.30 1804.71 L2901.29 1887.33 L2835.27 1963.20 L2769.26 2027.33 L2703.24 2077.01 L2637.09 2112.51 L2571.07 2135.73 L2505.06 2149.77 L2439.05 2157.60 L2373.03 2161.52 L2307.02 2163.41 L2241.00 2164.08 L2174.99 2164.49 L2174.99 2558.69 Z" stroke-linejoin="round" style="fill:#A65D62;fill-opacity:0.50;stroke:#90353B;stroke-opacity:0.50;stroke-width:0.00"/>
	<path d="
M2174.99 1479.89 L2174.99 1479.89 L2241.00 1479.89 L2307.02 1479.76 L2373.03 1479.76 L2439.05 1479.49 L2505.06 1479.08 L2571.07 1478.41 L2637.09 1477.33 L2703.24 1475.57 L2769.26 1473.14 L2835.27 1470.04 L2901.29 1466.39 L2967.30 1462.34 L3033.32 1458.29 L3099.33 1454.65 L3165.35 1451.54 L3231.36 1449.11 L3297.38 1447.36 L3363.39 1446.28 L3429.54 1445.60 L3495.56 1445.20 L3561.57 1445.06 L3627.59 1444.93 L3693.60 1444.93 L3759.62 1444.93 L3759.62 1325.45 L3693.60 1325.45 L3627.59 1325.59 L3561.57 1325.59 L3495.56 1325.86 L3429.54 1326.26 L3363.39 1326.94 L3297.38 1328.02 L3231.36 1329.77 L3165.35 1332.20 L3099.33 1335.31 L3033.32 1338.95 L2967.30 1343.00 L2901.29 1347.05 L2835.27 1350.70 L2769.26 1353.80 L2703.24 1356.23 L2637.09 1357.99 L2571.07 1359.07 L2505.06 1359.74 L2439.05 1360.15 L2373.03 1360.28 L2307.02 1360.42 L2241.00 1360.42 L2174.99 1360.42 L2174.99 1479.89 Z" stroke-linejoin="round" style="fill:#A65D62;fill-opacity:0.50;stroke:#90353B;stroke-opacity:0.50;stroke-width:0.00"/>
	<path d="
M2174.99 483.98 L2174.99 483.98 L2241.00 484.39 L2307.02 485.33 L2373.03 487.49 L2439.05 492.08 L2505.06 501.13 L2571.07 517.46 L2637.09 544.73 L2703.24 586.18 L2769.26 644.37 L2835.27 719.29 L2901.29 808.12 L2967.30 904.65 L3033.32 1001.18 L3099.33 1090.01 L3165.35 1164.93 L3231.36 1223.12 L3297.38 1264.56 L3363.39 1291.70 L3429.54 1308.17 L3495.56 1317.22 L3561.57 1321.81 L3627.59 1323.97 L3693.60 1324.91 L3759.62 1325.32 L3759.62 1314.92 L3693.60 1314.52 L3627.59 1313.57 L3561.57 1311.41 L3495.56 1306.82 L3429.54 1297.78 L3363.39 1281.44 L3297.38 1254.17 L3231.36 1212.72 L3165.35 1154.54 L3099.33 1079.61 L3033.32 990.78 L2967.30 894.25 L2901.29 797.73 L2835.27 708.90 L2769.26 633.97 L2703.24 575.78 L2637.09 534.34 L2571.07 507.20 L2505.06 490.73 L2439.05 481.69 L2373.03 477.10 L2307.02 474.94 L2241.00 473.99 L2174.99 473.59 L2174.99 483.98 Z" stroke-linejoin="round" style="fill:#A65D62;fill-opacity:0.50;stroke:#90353B;stroke-opacity:0.50;stroke-width:0.00"/>
	<path d="
M590.36 1642.30 L590.36 1642.30 L656.37 1642.30 L722.39 1642.03 L788.40 1641.63 L854.42 1640.82 L920.43 1639.06 L986.45 1635.82 L1052.46 1630.56 L1118.47 1622.59 L1184.63 1611.39 L1250.64 1596.94 L1316.66 1579.79 L1382.67 1561.16 L1448.69 1542.53 L1514.70 1525.39 L1580.72 1510.81 L1646.73 1499.60 L1712.75 1491.64 L1778.76 1486.37 L1844.78 1483.27 L1910.79 1481.51 L1976.94 1480.57 L2042.96 1480.16 L2108.97 1480.03 L2174.99 1479.89 L2174.99 1360.55 L2108.97 1360.55 L2042.96 1360.82 L1976.94 1361.23 L1910.79 1362.04 L1844.78 1363.79 L1778.76 1367.03 L1712.75 1372.30 L1646.73 1380.26 L1580.72 1391.47 L1514.70 1405.91 L1448.69 1423.06 L1382.67 1441.69 L1316.66 1460.32 L1250.64 1477.46 L1184.63 1492.04 L1118.47 1503.25 L1052.46 1511.21 L986.45 1516.48 L920.43 1519.58 L854.42 1521.34 L788.40 1522.28 L722.39 1522.69 L656.37 1522.82 L590.36 1522.96 L590.36 1642.30 Z" stroke-linejoin="round" style="fill:#486C8C;fill-opacity:0.50;stroke:#1A476F;stroke-opacity:0.50;stroke-width:0.00"/>
	<path d="
M590.36 1522.82 L590.36 1522.82 L656.37 1522.69 L722.39 1522.28 L788.40 1521.20 L854.42 1519.04 L920.43 1514.59 L986.45 1506.62 L1052.46 1493.39 L1118.47 1473.41 L1184.63 1445.20 L1250.64 1408.88 L1316.66 1365.82 L1382.67 1318.97 L1448.69 1272.26 L1514.70 1229.19 L1580.72 1192.88 L1646.73 1164.66 L1712.75 1144.55 L1778.76 1131.32 L1844.78 1123.49 L1910.79 1119.03 L1976.94 1116.74 L2042.96 1115.79 L2108.97 1115.25 L2174.99 1115.12 L2174.99 1097.70 L2108.97 1097.84 L2042.96 1098.38 L1976.94 1099.32 L1910.79 1101.62 L1844.78 1106.07 L1778.76 1113.90 L1712.75 1127.13 L1646.73 1147.25 L1580.72 1175.46 L1514.70 1211.78 L1448.69 1254.84 L1382.67 1301.56 L1316.66 1348.40 L1250.64 1391.47 L1184.63 1427.78 L1118.47 1456.00 L1052.46 1476.11 L986.45 1489.21 L920.43 1497.17 L854.42 1501.63 L788.40 1503.79 L722.39 1504.87 L656.37 1505.27 L590.36 1505.54 L590.36 1522.82 Z" stroke-linejoin="round" style="fill:#486C8C;fill-opacity:0.50;stroke:#1A476F;stroke-opacity:0.50;stroke-width:0.00"/>
	<path d="
M2174.99 2076.33 L2174.99 2076.33 L2241.00 2075.79 L2307.02 2074.58 L2373.03 2071.61 L2439.05 2065.13 L2505.06 2052.57 L2571.07 2029.89 L2637.09 1992.09 L2703.24 1934.58 L2769.26 1853.85 L2835.27 1749.90 L2901.29 1626.78 L2967.30 1492.85 L3033.32 1358.93 L3099.33 1235.81 L3165.35 1131.86 L3231.36 1051.13 L3297.38 993.62 L3363.39 955.95 L3429.54 933.13 L3495.56 920.58 L3561.57 914.23 L3627.59 911.13 L3693.60 909.91 L3759.62 909.37 L3759.62 851.86 L3693.60 852.40 L3627.59 853.75 L3561.57 856.72 L3495.56 863.07 L3429.54 875.76 L3363.39 898.44 L3297.38 936.10 L3231.36 993.75 L3165.35 1074.35 L3099.33 1178.30 L3033.32 1301.42 L2967.30 1435.34 L2901.29 1569.40 L2835.27 1692.39 L2769.26 1796.47 L2703.24 1877.07 L2637.09 1934.72 L2571.07 1972.38 L2505.06 1995.06 L2439.05 2007.75 L2373.03 2014.10 L2307.02 2017.07 L2241.00 2018.42 L2174.99 2018.82 L2174.99 2076.33 Z" stroke-linejoin="round" style="fill:#A65D62;fill-opacity:0.30;stroke:#90353B;stroke-opacity:0.30;stroke-width:0.00"/>
	<path d="
M2174.99 1114.98 L2174.99 1114.98 L2241.00 1114.85 L2307.02 1114.58 L2373.03 1113.90 L2439.05 1112.42 L2505.06 1109.58 L2571.07 1104.45 L2637.09 1095.95 L2703.24 1082.99 L2769.26 1064.76 L2835.27 1041.27 L2901.29 1013.60 L2967.30 983.36 L3033.32 953.11 L3099.33 925.30 L3165.35 901.95 L3231.36 883.72 L3297.38 870.76 L3363.39 862.26 L3429.54 857.13 L3495.56 854.29 L3561.57 852.81 L3627.59 852.13 L3693.60 851.86 L3759.62 851.73 L3759.62 834.31 L3693.60 834.45 L3627.59 834.72 L3561.57 835.39 L3495.56 836.88 L3429.54 839.71 L3363.39 844.84 L3297.38 853.35 L3231.36 866.31 L3165.35 884.53 L3099.33 907.89 L3033.32 935.70 L2967.30 965.94 L2901.29 996.18 L2835.27 1023.86 L2769.26 1047.35 L2703.24 1065.57 L2637.09 1078.53 L2571.07 1087.04 L2505.06 1092.17 L2439.05 1095.00 L2373.03 1096.49 L2307.02 1097.16 L2241.00 1097.43 L2174.99 1097.57 L2174.99 1114.98 Z" stroke-linejoin="round" style="fill:#A65D62;fill-opacity:0.30;stroke:#90353B;stroke-opacity:0.30;stroke-width:0.00"/>
	<path d="
M2174.99 165.65 L2174.99 165.65 L2241.00 165.92 L2307.02 166.73 L2373.03 168.35 L2439.05 172.13 L2505.06 179.28 L2571.07 192.24 L2637.09 213.98 L2703.24 246.92 L2769.26 293.09 L2835.27 352.63 L2901.29 423.10 L2967.30 499.91 L3033.32 576.59 L3099.33 647.07 L3165.35 706.60 L3231.36 752.91 L3297.38 785.85 L3363.39 807.45 L3429.54 820.54 L3495.56 827.70 L3561.57 831.34 L3627.59 833.10 L3693.60 833.77 L3759.62 834.04 L3759.62 832.56 L3693.60 832.29 L3627.59 831.61 L3561.57 829.86 L3495.56 826.21 L3429.54 818.92 L3363.39 805.96 L3297.38 784.36 L3231.36 751.42 L3165.35 705.12 L3099.33 645.58 L3033.32 575.11 L2967.30 498.43 L2901.29 421.61 L2835.27 351.14 L2769.26 291.60 L2703.24 245.43 L2637.09 212.36 L2571.07 190.76 L2505.06 177.80 L2439.05 170.51 L2373.03 166.86 L2307.02 165.24 L2241.00 164.43 L2174.99 164.16 L2174.99 165.65 Z" stroke-linejoin="round" style="fill:#A65D62;fill-opacity:0.30;stroke:#90353B;stroke-opacity:0.30;stroke-width:0.00"/>
	<path d="
M590.36 877.11 L590.36 877.11 L656.37 877.11 L722.39 876.97 L788.40 876.84 L854.42 876.30 L920.43 875.35 L986.45 873.73 L1052.46 871.03 L1118.47 866.85 L1184.63 861.04 L1250.64 853.48 L1316.66 844.57 L1382.67 834.99 L1448.69 825.27 L1514.70 816.36 L1580.72 808.80 L1646.73 802.99 L1712.75 798.81 L1778.76 796.11 L1844.78 794.49 L1910.79 793.54 L1976.94 793.14 L2042.96 792.87 L2108.97 792.73 L2174.99 792.73 L2174.99 792.19 L2108.97 792.19 L2042.96 792.33 L1976.94 792.60 L1910.79 793.00 L1844.78 793.95 L1778.76 795.57 L1712.75 798.27 L1646.73 802.45 L1580.72 808.26 L1514.70 815.82 L1448.69 824.73 L1382.67 834.45 L1316.66 844.03 L1250.64 852.94 L1184.63 860.50 L1118.47 866.31 L1052.46 870.49 L986.45 873.19 L920.43 874.81 L854.42 875.76 L788.40 876.16 L722.39 876.43 L656.37 876.57 L590.36 876.57 L590.36 877.11 Z" stroke-linejoin="round" style="fill:#486C8C;fill-opacity:0.30;stroke:#1A476F;stroke-opacity:0.30;stroke-width:0.00"/>
	<path d="
M590.36 876.57 L590.36 876.57 L656.37 876.30 L722.39 875.89 L788.40 874.95 L854.42 872.79 L920.43 868.47 L986.45 860.91 L1052.46 848.22 L1118.47 828.78 L1184.63 801.64 L1250.64 766.68 L1316.66 725.23 L1382.67 680.14 L1448.69 635.18 L1514.70 593.74 L1580.72 558.77 L1646.73 531.64 L1712.75 512.20 L1778.76 499.51 L1844.78 491.95 L1910.79 487.63 L1976.94 485.47 L2042.96 484.52 L2108.97 484.12 L2174.99 483.85 L2174.99 473.59 L2108.97 473.72 L2042.96 474.13 L1976.94 475.07 L1910.79 477.23 L1844.78 481.55 L1778.76 489.11 L1712.75 501.80 L1646.73 521.24 L1580.72 548.38 L1514.70 583.34 L1448.69 624.79 L1382.67 669.88 L1316.66 714.84 L1250.64 756.28 L1184.63 791.25 L1118.47 818.38 L1052.46 837.82 L986.45 850.51 L920.43 858.21 L854.42 862.39 L788.40 864.55 L722.39 865.50 L656.37 865.90 L590.36 866.17 L590.36 876.57 Z" stroke-linejoin="round" style="fill:#486C8C;fill-opacity:0.30;stroke:#1A476F;stroke-opacity:0.30;stroke-width:0.00"/>
	<path d="
M590.36 866.04 L590.36 866.04 L656.37 865.77 L722.39 864.96 L788.40 863.20 L854.42 859.29 L920.43 851.86 L986.45 838.23 L1052.46 815.55 L1118.47 780.99 L1184.63 732.52 L1250.64 670.15 L1316.66 596.30 L1382.67 515.84 L1448.69 435.52 L1514.70 361.54 L1580.72 299.16 L1646.73 250.83 L1712.75 216.27 L1778.76 193.59 L1844.78 179.96 L1910.79 172.40 L1976.94 168.62 L2042.96 166.73 L2108.97 165.92 L2174.99 165.65 L2174.99 164.16 L2108.97 164.43 L2042.96 165.24 L1976.94 167.00 L1910.79 170.91 L1844.78 178.47 L1778.76 192.11 L1712.75 214.65 L1646.73 249.21 L1580.72 297.68 L1514.70 360.05 L1448.69 434.03 L1382.67 514.36 L1316.66 594.82 L1250.64 668.67 L1184.63 731.04 L1118.47 779.50 L1052.46 814.06 L986.45 836.61 L920.43 850.24 L854.42 857.80 L788.40 861.72 L722.39 863.47 L656.37 864.28 L590.36 864.55 L590.36 866.04 Z" stroke-linejoin="round" style="fill:#486C8C;fill-opacity:0.30;stroke:#1A476F;stroke-opacity:0.30;stroke-width:0.00"/>
	<text x="521.91" y="2318.34" style="font-family:'Helvetica';font-size:100.04px;fill:#000000" text-anchor="middle">R-I</text>
	<text x="508.68" y="1612.14" style="font-family:'Helvetica';font-size:100.04px;fill:#000000" text-anchor="middle">R-II</text>
	<text x="495.59" y="905.95" style="font-family:'Helvetica';font-size:100.04px;fill:#000000" text-anchor="middle">R-III</text>
	<text x="3825.23" y="2318.34" style="font-family:'Helvetica';font-size:100.04px;fill:#000000" text-anchor="middle">S-I</text>
	<text x="3838.32" y="1612.14" style="font-family:'Helvetica';font-size:100.04px;fill:#000000" text-anchor="middle">S-II</text>
	<text x="3851.55" y="905.95" style="font-family:'Helvetica';font-size:100.04px;fill:#000000" text-anchor="middle">S-III</text>
	<defs>
		<path id="path_RWqIuOgm" d="M2090.34 2725.56 M2090.34 2725.56 L2259.50 2725.56 L2259.50 2625.52 L2090.34 2625.52 L2090.34 2725.56 Z" stroke-linejoin="round"/>
	</defs>
	<defs>
		<clipPath id="clipPath_adbxWKfD">
			<use xlink:href="#path_RWqIuOgm"/>
		</clipPath>
	</defs>
	<use xlink:href="#path_RWqIuOgm" style="stroke:none;fill:#D9E6EB"/>
	<use xlink:href="#path_RWqIuOgm" style="fill:none;stroke:#000000;stroke-width:8.64" clip-path="url(#clipPath_adbxWKfD)"/>
	<text x="2174.99" y="2710.65" style="font-family:'Helvetica';font-size:100.04px;fill:#000000" text-anchor="middle">C-1</text>
	<defs>
		<path id="path_bDVfmhvQ" d="M2090.34 2411.68 M2090.34 2411.68 L2259.50 2411.68 L2259.50 2311.64 L2090.34 2311.64 L2090.34 2411.68 Z" stroke-linejoin="round"/>
	</defs>
	<defs>
		<clipPath id="clipPath_XbqcjktT">
			<use xlink:href="#path_bDVfmhvQ"/>
		</clipPath>
	</defs>
	<use xlink:href="#path_bDVfmhvQ" style="stroke:none;fill:#D9E6EB"/>
	<use xlink:href="#path_bDVfmhvQ" style="fill:none;stroke:#000000;stroke-width:8.64" clip-path="url(#clipPath_XbqcjktT)"/>
	<text x="2174.99" y="2396.77" style="font-family:'Helvetica';font-size:100.04px;fill:#000000" text-anchor="middle">C-2</text>
	<defs>
		<path id="path_trslqrRR" d="M2090.34 2097.80 M2090.34 2097.80 L2259.50 2097.80 L2259.50 1997.76 L2090.34 1997.76 L2090.34 2097.80 Z" stroke-linejoin="round"/>
	</defs>
	<defs>
		<clipPath id="clipPath_jbxcfzGW">
			<use xlink:href="#path_trslqrRR"/>
		</clipPath>
	</defs>
	<use xlink:href="#path_trslqrRR" style="stroke:none;fill:#D9E6EB"/>
	<use xlink:href="#path_trslqrRR" style="fill:none;stroke:#000000;stroke-width:8.64" clip-path="url(#clipPath_jbxcfzGW)"/>
	<text x="2174.99" y="2082.89" style="font-family:'Helvetica';font-size:100.04px;fill:#000000" text-anchor="middle">C-3</text>
	<defs>
		<path id="path_mkYzNJqM" d="M2090.34 1783.92 M2090.34 1783.92 L2259.50 1783.92 L2259.50 1683.88 L2090.34 1683.88 L2090.34 1783.92 Z" stroke-linejoin="round"/>
	</defs>
	<defs>
		<clipPath id="clipPath_TmGnkpTY">
			<use xlink:href="#path_mkYzNJqM"/>
		</clipPath>
	</defs>
	<use xlink:href="#path_mkYzNJqM" style="stroke:none;fill:#D9E6EB"/>
	<use xlink:href="#path_mkYzNJqM" style="fill:none;stroke:#000000;stroke-width:8.64" clip-path="url(#clipPath_TmGnkpTY)"/>
	<text x="2174.99" y="1769.01" style="font-family:'Helvetica';font-size:100.04px;fill:#000000" text-anchor="middle">C-4</text>
	<defs>
		<path id="path_QPaGhYzq" d="M2090.34 1470.17 M2090.34 1470.17 L2259.50 1470.17 L2259.50 1370.14 L2090.34 1370.14 L2090.34 1470.17 Z" stroke-linejoin="round"/>
	</defs>
	<defs>
		<clipPath id="clipPath_pKCdKbCc">
			<use xlink:href="#path_QPaGhYzq"/>
		</clipPath>
	</defs>
	<use xlink:href="#path_QPaGhYzq" style="stroke:none;fill:#D9E6EB"/>
	<use xlink:href="#path_QPaGhYzq" style="fill:none;stroke:#000000;stroke-width:8.64" clip-path="url(#clipPath_pKCdKbCc)"/>
	<text x="2174.99" y="1455.27" style="font-family:'Helvetica';font-size:100.04px;fill:#000000" text-anchor="middle">C-5</text>
	<defs>
		<path id="path_vpELcBzK" d="M2090.34 1156.29 M2090.34 1156.29 L2259.50 1156.29 L2259.50 1056.26 L2090.34 1056.26 L2090.34 1156.29 Z" stroke-linejoin="round"/>
	</defs>
	<defs>
		<clipPath id="clipPath_YXyUedWJ">
			<use xlink:href="#path_vpELcBzK"/>
		</clipPath>
	</defs>
	<use xlink:href="#path_vpELcBzK" style="stroke:none;fill:#D9E6EB"/>
	<use xlink:href="#path_vpELcBzK" style="fill:none;stroke:#000000;stroke-width:8.64" clip-path="url(#clipPath_YXyUedWJ)"/>
	<text x="2174.99" y="1141.39" style="font-family:'Helvetica';font-size:100.04px;fill:#000000" text-anchor="middle">C-6</text>
	<defs>
		<path id="path_JmOXFKQb" d="M2090.34 842.41 M2090.34 842.41 L2259.50 842.41 L2259.50 742.38 L2090.34 742.38 L2090.34 842.41 Z" stroke-linejoin="round"/>
	</defs>
	<defs>
		<clipPath id="clipPath_DrvYrBWc">
			<use xlink:href="#path_JmOXFKQb"/>
		</clipPath>
	</defs>
	<use xlink:href="#path_JmOXFKQb" style="stroke:none;fill:#D9E6EB"/>
	<use xlink:href="#path_JmOXFKQb" style="fill:none;stroke:#000000;stroke-width:8.64" clip-path="url(#clipPath_DrvYrBWc)"/>
	<text x="2174.99" y="827.51" style="font-family:'Helvetica';font-size:100.04px;fill:#000000" text-anchor="middle">C-7</text>
	<defs>
		<path id="path_PZNDSauh" d="M2090.34 528.53 M2090.34 528.53 L2259.50 528.53 L2259.50 428.50 L2090.34 428.50 L2090.34 528.53 Z" stroke-linejoin="round"/>
	</defs>
	<defs>
		<clipPath id="clipPath_CedDXEVo">
			<use xlink:href="#path_PZNDSauh"/>
		</clipPath>
	</defs>
	<use xlink:href="#path_PZNDSauh" style="stroke:none;fill:#D9E6EB"/>
	<use xlink:href="#path_PZNDSauh" style="fill:none;stroke:#000000;stroke-width:8.64" clip-path="url(#clipPath_CedDXEVo)"/>
	<text x="2174.99" y="513.63" style="font-family:'Helvetica';font-size:100.04px;fill:#000000" text-anchor="middle">C-8</text>
	<defs>
		<path id="path_OFvQYocB" d="M2090.34 214.65 M2090.34 214.65 L2259.50 214.65 L2259.50 114.62 L2090.34 114.62 L2090.34 214.65 Z" stroke-linejoin="round"/>
	</defs>
	<defs>
		<clipPath id="clipPath_ndiilyKo">
			<use xlink:href="#path_OFvQYocB"/>
		</clipPath>
	</defs>
	<use xlink:href="#path_OFvQYocB" style="stroke:none;fill:#D9E6EB"/>
	<use xlink:href="#path_OFvQYocB" style="fill:none;stroke:#000000;stroke-width:8.64" clip-path="url(#clipPath_ndiilyKo)"/>
	<text x="2174.99" y="199.75" style="font-family:'Helvetica';font-size:100.04px;fill:#000000" text-anchor="middle">C-9</text>
	<line x1="130.82" y1="2880.00" x2="130.82" y2="2880.00" style="stroke:#808080;stroke-width:7.20"/>
	<line x1="0.00" y1="2749.18" x2="0.00" y2="2749.18" style="stroke:#808080;stroke-width:7.20"/>
</svg>
